<?xml version="1.0" encoding="utf-8"?>
<svg version="1.1" xmlns="http://www.w3.org/2000/svg" viewBox="0 0 654.905 189.476">
<path fill="#00bbff" d="M168.403,93.66l-27.037,65.816c16.348,0,37.61,0,54.074,0L168.403,93.66z"/>
<path fill="#ffffff" d="M298.74,162.226c-29.879,0-54.187-24.308-54.187-54.187V30.5h20v77.539c0,18.851,15.336,34.187,34.187,34.187
	s34.187-15.336,34.187-34.187V30.5h20v77.539C352.927,137.918,328.619,162.226,298.74,162.226z M466.584,139.476h-64.97V30.5h-20
	v128.976h84.97V139.476z M566.525,30.5H446.584v20h49.97v108.976h20V50.5h49.971V30.5z M118.496,0L63.794,133.159L21.622,30.5H0
	l52.983,128.976h21.622L140.118,0H118.496z M113.906,189.476l54.497-132.659l42.172,102.659h21.622L179.214,30.5h-21.622
	L92.284,189.476H113.906z M654.905,30.5l-28.285,0l-60.095,60.095v68.88h20V98.88L654.905,30.5z"/>
</svg>
