<?xml version="1.0" encoding="utf-8"?>
<!-- Generator: Adobe Illustrator 24.1.3, SVG Export Plug-In . SVG Version: 6.00 Build 0)  -->
<svg version="1.1" id="Layer_1" xmlns="http://www.w3.org/2000/svg" xmlns:xlink="http://www.w3.org/1999/xlink" x="0px" y="0px"
	 viewBox="0 0 34.535 13.86" enable-background="new 0 0 34.535 13.86" xml:space="preserve">
<g>
	<path fill="#2599CC" d="M2.112,9.96l-1.968-6h2.064l0.648,2.616C3,7.176,3.144,7.8,3.288,8.448h0.048
		C3.48,7.8,3.624,7.176,3.768,6.576L4.416,3.96h1.968l-1.896,6H2.112z"/>
	<path fill="#2599CC" d="M8.544,10.104c-0.28,0-0.532-0.051-0.756-0.15c-0.224-0.1-0.414-0.234-0.57-0.402
		C7.062,9.384,6.944,9.188,6.864,8.964c-0.08-0.224-0.12-0.46-0.12-0.708c0-0.624,0.256-1.114,0.768-1.47
		c0.512-0.356,1.344-0.594,2.496-0.714C9.96,5.656,9.68,5.448,9.168,5.448c-0.216,0-0.444,0.042-0.684,0.126
		c-0.24,0.084-0.516,0.21-0.828,0.378l-0.72-1.344C7.36,4.352,7.788,4.156,8.22,4.02c0.432-0.136,0.884-0.204,1.356-0.204
		c0.776,0,1.386,0.222,1.83,0.666c0.444,0.444,0.666,1.158,0.666,2.142V9.96h-1.68l-0.144-0.576H10.2
		C9.96,9.601,9.706,9.774,9.438,9.905C9.17,10.038,8.872,10.104,8.544,10.104z M9.264,8.521c0.168,0,0.306-0.039,0.414-0.115
		c0.108-0.075,0.218-0.174,0.33-0.293V7.296c-0.497,0.072-0.836,0.18-1.02,0.324c-0.184,0.144-0.276,0.3-0.276,0.468
		C8.712,8.376,8.896,8.521,9.264,8.521z"/>
	<path fill="#2599CC" d="M15.24,10.104c-0.328,0-0.61-0.059-0.846-0.174c-0.236-0.117-0.43-0.281-0.582-0.492
		C13.66,9.226,13.548,8.97,13.476,8.67c-0.072-0.3-0.108-0.638-0.108-1.014V3.96h2.064v3.432c0,0.384,0.048,0.64,0.144,0.768
		s0.248,0.192,0.456,0.192c0.192,0,0.35-0.041,0.474-0.121s0.254-0.215,0.39-0.408V3.96h2.064v6h-1.68l-0.144-0.792h-0.048
		c-0.24,0.288-0.506,0.517-0.798,0.685S15.648,10.104,15.24,10.104z"/>
	<path fill="#2599CC" d="M22.2,10.104c-0.353,0-0.646-0.055-0.882-0.162c-0.236-0.108-0.426-0.262-0.57-0.463
		c-0.144-0.199-0.246-0.438-0.306-0.713c-0.061-0.277-0.09-0.582-0.09-0.918v-6.24h2.063V7.92c0,0.208,0.038,0.349,0.114,0.42
		c0.076,0.072,0.15,0.108,0.222,0.108c0.04,0,0.074,0,0.103,0c0.027,0,0.065-0.008,0.113-0.024l0.24,1.513
		c-0.112,0.047-0.25,0.088-0.414,0.119C22.63,10.088,22.433,10.104,22.2,10.104z"/>
	<path fill="#2599CC" d="M26.399,10.104c-0.392,0-0.726-0.059-1.002-0.174c-0.276-0.117-0.504-0.283-0.684-0.498
		c-0.181-0.217-0.312-0.475-0.396-0.774s-0.126-0.634-0.126-1.002V5.568h-0.792V4.032l0.912-0.072l0.24-1.56h1.704v1.56h1.367v1.608
		h-1.367V7.62c0,0.336,0.071,0.566,0.216,0.689c0.144,0.125,0.312,0.187,0.504,0.187c0.096,0,0.189-0.011,0.282-0.03
		c0.092-0.02,0.174-0.042,0.246-0.066l0.312,1.488c-0.16,0.049-0.353,0.096-0.576,0.145C27.016,10.08,26.735,10.104,26.399,10.104z"
		/>
	<path fill="#2599CC" d="M29.615,12.216c-0.208,0-0.378-0.01-0.51-0.029c-0.132-0.021-0.267-0.051-0.402-0.09l0.36-1.561
		c0.056,0.016,0.118,0.031,0.186,0.048c0.068,0.017,0.134,0.024,0.198,0.024c0.28,0,0.49-0.055,0.63-0.162
		c0.14-0.108,0.242-0.254,0.306-0.438l0.072-0.264l-2.28-5.784h2.064l0.72,2.304c0.088,0.28,0.164,0.558,0.229,0.834
		c0.063,0.276,0.132,0.566,0.204,0.87h0.048c0.063-0.288,0.126-0.572,0.186-0.852c0.061-0.28,0.126-0.564,0.198-0.852l0.6-2.304
		h1.969l-2.017,5.904c-0.16,0.408-0.322,0.76-0.485,1.056c-0.164,0.296-0.354,0.54-0.57,0.731c-0.216,0.192-0.462,0.334-0.738,0.427
		C30.306,12.17,29.983,12.216,29.615,12.216z"/>
</g>
</svg>
